<?xml version="1.0" encoding="UTF-8"?>
<svg enable-background="new 0 0 512 512" version="1.1" viewBox="0 0 512 512" xml:space="preserve" xmlns="http://www.w3.org/2000/svg">
<g fill="#41479B">
	<polygon points="188.63 0 0 0 0 39.954 188.63 163.54"/>
	<polygon points="0 136.6 0 188.63 79.419 188.63"/>
	<polygon points="0 323.37 0 375.4 79.419 323.37"/>
	<polygon points="512 39.954 512 0 323.37 0 323.37 163.54"/>
	<polygon points="512 375.4 512 323.37 432.58 323.37"/>
	<polygon points="323.37 348.46 323.37 512 512 512 512 472.05"/>
	<polygon points="512 188.63 512 136.6 432.58 188.63"/>
	<polygon points="0 472.05 0 512 188.63 512 188.63 348.46"/>
</g>
<g fill="#F5F5F5">
	<polygon points="512 472.05 512 432.12 344.46 323.37 393.96 323.37 512 399.99 512 375.4 432.58 323.37 512 323.37 512 296.42 296.42 296.42 296.42 512 323.37 512 323.37 348.46"/>
	<polygon points="0 296.42 0 323.37 79.419 323.37 0 375.4 0 413.2 138.4 323.37 187.89 323.37 0 445.33 0 472.05 188.63 348.46 188.63 512 215.58 512 215.58 296.42"/>
	<polygon points="215.58 0 188.63 0 188.63 163.54 0 39.954 0 83.679 161.68 188.63 112.19 188.63 0 115.81 0 136.6 79.419 188.63 0 188.63 0 215.58 215.58 215.58"/>
	<polygon points="512 215.58 512 188.63 432.58 188.63 512 136.6 512 98.314 372.86 188.63 323.37 188.63 512 66.185 512 39.954 323.37 163.54 323.37 0 296.42 0 296.42 215.58"/>
</g>
<g fill="#FF4B55">
	<polygon points="512 296.42 512 215.58 296.42 215.58 296.42 0 215.58 0 215.58 215.58 0 215.58 0 296.42 215.58 296.42 215.58 512 296.42 512 296.42 296.42"/>
	<polygon points="138.4 323.37 0 413.2 0 445.33 187.89 323.37"/>
	<polygon points="344.46 323.37 512 432.12 512 399.99 393.96 323.37"/>
	<polygon points="161.68 188.63 0 83.679 0 115.81 112.19 188.63"/>
	<polygon points="372.86 188.63 512 98.314 512 66.185 323.37 188.63"/>
</g>
</svg>